<svg xmlns="http://www.w3.org/2000/svg" width="12.429" height="16.572" viewBox="0 0 12.429 16.572">
  <path id="file-alt" d="M7.25,4.4V0H.777A.775.775,0,0,0,0,.777V15.8a.775.775,0,0,0,.777.777H11.652a.775.775,0,0,0,.777-.777V5.179h-4.4A.779.779,0,0,1,7.25,4.4Zm2.072,7.639a.39.39,0,0,1-.388.388H3.5a.39.39,0,0,1-.388-.388v-.259a.39.39,0,0,1,.388-.388H8.934a.39.39,0,0,1,.388.388Zm0-2.072a.39.39,0,0,1-.388.388H3.5a.39.39,0,0,1-.388-.388V9.71A.39.39,0,0,1,3.5,9.322H8.934a.39.39,0,0,1,.388.388Zm0-2.33V7.9a.39.39,0,0,1-.388.388H3.5A.39.39,0,0,1,3.107,7.9V7.639A.39.39,0,0,1,3.5,7.25H8.934A.39.39,0,0,1,9.322,7.639Zm3.107-3.693v.2H8.286V0h.2a.776.776,0,0,1,.55.227L12.2,3.4A.774.774,0,0,1,12.429,3.946Z" fill="#7a7a7a"/>
</svg>
