<svg xmlns="http://www.w3.org/2000/svg" width="28.286" height="22" viewBox="0 0 28.286 22">
  <path id="images" d="M23.571,50.857v.786A2.357,2.357,0,0,1,21.214,54H2.357A2.357,2.357,0,0,1,0,51.643V39.071a2.357,2.357,0,0,1,2.357-2.357h.786V46.929a3.933,3.933,0,0,0,3.929,3.929Zm4.714-3.929V34.357A2.357,2.357,0,0,0,25.929,32H7.071a2.357,2.357,0,0,0-2.357,2.357V46.929a2.357,2.357,0,0,0,2.357,2.357H25.929A2.357,2.357,0,0,0,28.286,46.929ZM12.571,36.714a2.357,2.357,0,1,1-2.357-2.357A2.357,2.357,0,0,1,12.571,36.714ZM7.857,43.786l2.726-2.726a.589.589,0,0,1,.833,0L13.357,43l6.655-6.655a.589.589,0,0,1,.833,0l4.3,4.3v5.5H7.857Z" transform="translate(0 -32)" fill="#00723e"/>
</svg>
