<svg xmlns="http://www.w3.org/2000/svg" width="22.333" height="19.852" viewBox="0 0 22.333 19.852">
  <path id="map-marked-alt" d="M11.167,0A4.885,4.885,0,0,0,6.281,4.885c0,2.181,3.193,6.157,4.416,7.6a.612.612,0,0,0,.938,0c1.223-1.443,4.416-5.419,4.416-7.6A4.885,4.885,0,0,0,11.167,0Zm0,6.514A1.628,1.628,0,1,1,12.8,4.885,1.628,1.628,0,0,1,11.167,6.514ZM.78,8.373A1.241,1.241,0,0,0,0,9.525v9.706a.62.62,0,0,0,.851.576L6.2,17.37V8.333a11.742,11.742,0,0,1-.824-1.8Zm10.387,5.572a1.853,1.853,0,0,1-1.416-.658c-.762-.9-1.573-1.924-2.307-2.975V17.37l7.444,2.481V10.314c-.734,1.05-1.544,2.075-2.307,2.975A1.854,1.854,0,0,1,11.167,13.945Zm10.316-7.7L16.13,8.685V19.852l5.424-2.169a1.241,1.241,0,0,0,.78-1.152V6.825A.62.62,0,0,0,21.483,6.249Z" fill="#00723e"/>
</svg>
