<svg xmlns="http://www.w3.org/2000/svg" width="21.355" height="21.355" viewBox="0 0 21.355 21.355">
  <path id="medal" d="M9.333,5.454,6.45.648A1.335,1.335,0,0,0,5.305,0H.669A.667.667,0,0,0,.122,1.05L4.764,7.68a8.632,8.632,0,0,1,4.57-2.227ZM20.688,0H16.051a1.335,1.335,0,0,0-1.145.648L12.024,5.454a8.635,8.635,0,0,1,4.57,2.226l4.641-6.63A.667.667,0,0,0,20.688,0ZM10.678,6.674a7.341,7.341,0,1,0,7.341,7.341A7.341,7.341,0,0,0,10.678,6.674Zm3.859,6.559-1.582,1.542.374,2.178a.479.479,0,0,1-.694.5l-1.957-1.028L8.722,17.457a.479.479,0,0,1-.694-.5L8.4,14.774,6.82,13.233a.479.479,0,0,1,.265-.817L9.272,12.1l.977-1.982a.48.48,0,0,1,.86,0l.977,1.982,2.187.319A.479.479,0,0,1,14.537,13.233Z" transform="translate(-0.001)" fill="#00723e"/>
</svg>
