<?xml version="1.0" encoding="utf-8"?>
<!-- Generator: Adobe Illustrator 25.4.1, SVG Export Plug-In . SVG Version: 6.00 Build 0)  -->
<svg version="1.1" id="圖層_1" xmlns="http://www.w3.org/2000/svg" xmlns:xlink="http://www.w3.org/1999/xlink" x="0px" y="0px"
	 viewBox="0 0 24 24" style="enable-background:new 0 0 24 24;" xml:space="preserve">
<path d="M4,18h16c0.5,0,1-0.5,1-1s-0.5-1-1-1H4c-0.5,0-1,0.5-1,1S3.5,18,4,18z M4,13h16c0.5,0,1-0.4,1-1s-0.5-1-1-1H4
	c-0.5,0-1,0.4-1,1S3.5,13,4,13z M3,7c0,0.6,0.5,1,1,1h16c0.5,0,1-0.4,1-1s-0.5-1-1-1H4C3.5,6,3,6.4,3,7z"/>
</svg>
