<?xml version="1.0" encoding="utf-8"?>
<!-- Generator: Adobe Illustrator 26.3.1, SVG Export Plug-In . SVG Version: 6.00 Build 0)  -->
<svg version="1.1" id="圖層_1" xmlns="http://www.w3.org/2000/svg" xmlns:xlink="http://www.w3.org/1999/xlink" x="0px" y="0px"
	 viewBox="0 0 32 32" style="enable-background:new 0 0 32 32;" xml:space="preserve">
<style type="text/css">
	.st0{fill:#FFC524;}
	.st1{fill:#FFFFFF;}
</style>
<circle class="st0" cx="16" cy="16" r="15.5"/>
<path class="st1" d="M16,21.4c2-1.6,3.6-3.2,4.6-4.8c1-1.5,1.6-2.9,1.6-4.3c0-1.2-0.2-2.1-0.6-2.9c-0.4-0.8-0.9-1.5-1.6-2
	s-1.3-0.9-2-1.1C17.2,6.1,16.6,6,16,6c-0.6,0-1.2,0.1-2,0.3c-0.7,0.2-1.4,0.6-2,1.1c-0.6,0.5-1.1,1.2-1.6,2
	c-0.4,0.8-0.6,1.8-0.6,2.9c0,1.3,0.5,2.7,1.6,4.3C12.4,18.1,14,19.7,16,21.4z M16,23.6c-2.7-2-4.7-4-6-5.8s-2-3.7-2-5.4
	C8,11,8.3,9.8,8.8,8.8c0.5-1,1.1-1.9,1.9-2.5c0.8-0.7,1.6-1.2,2.6-1.5c0.9-0.3,1.9-0.5,2.8-0.5s1.9,0.2,2.8,0.5
	c0.9,0.3,1.8,0.9,2.6,1.5s1.4,1.5,1.9,2.5c0.5,1,0.7,2.2,0.7,3.5c0,1.8-0.7,3.6-2,5.4S18.7,21.6,16,23.6z M16,14.2
	c0.6,0,1.1-0.2,1.5-0.6c0.4-0.4,0.6-0.9,0.6-1.5s-0.2-1.1-0.6-1.5c-0.4-0.4-0.9-0.6-1.5-0.6s-1.1,0.2-1.5,0.6
	c-0.4,0.4-0.6,0.9-0.6,1.5s0.2,1.1,0.6,1.5C14.9,14,15.4,14.2,16,14.2z M8,27.8V26H24v1.8H8z M16,12.3L16,12.3L16,12.3L16,12.3
	L16,12.3L16,12.3L16,12.3L16,12.3L16,12.3L16,12.3L16,12.3L16,12.3L16,12.3z"/>
</svg>
